<svg width="219" height="29" viewBox="0 0 219 29" fill="none" xmlns="http://www.w3.org/2000/svg">
<path d="M157.914 15.6347C157.914 19.4539 160.515 22.1455 164.298 22.1455C168.062 22.1455 170.663 19.4539 170.663 15.6347C170.663 11.8155 168.062 9.12384 164.298 9.12384C160.515 9.12384 157.914 11.8155 157.914 15.6347ZM169.663 15.6347C169.663 18.981 167.589 21.2362 164.298 21.2362C160.988 21.2362 158.914 18.981 158.914 15.6347C158.914 12.2338 160.988 10.0514 164.298 10.0514C167.589 10.0514 169.663 12.2338 169.663 15.6347ZM168.026 14.307H165.789C165.571 13.6341 165.007 13.2522 164.225 13.2522C163.152 13.2522 162.424 14.0342 162.424 15.6165C162.424 17.1987 163.152 17.9989 164.225 17.9989C165.098 17.9989 165.534 17.5806 165.789 16.9441H168.026C167.607 18.6173 166.171 19.763 164.279 19.763C161.988 19.763 160.278 18.1444 160.278 15.6165C160.278 13.0885 161.988 11.4881 164.279 11.4881C166.171 11.4881 167.607 12.5429 168.026 14.307ZM176.581 21.8181H185.566V19.7085H180.201C182.31 17.9262 185.275 15.5255 185.275 12.452C185.275 10.1423 183.838 8.45093 180.983 8.45093C178.6 8.45093 176.654 9.85131 176.563 12.8885H179.037C179.055 11.4881 179.728 10.6151 180.946 10.6151C182.201 10.6151 182.729 11.4154 182.729 12.5975C182.729 15.0345 179.582 17.3806 176.581 19.9267V21.8181ZM187.17 15.1982C187.17 19.0719 188.334 21.9636 192.08 21.9636C195.827 21.9636 196.991 19.0719 196.991 15.1982C196.991 11.3608 195.827 8.48731 192.08 8.48731C188.334 8.48731 187.17 11.3608 187.17 15.1982ZM194.481 15.1982C194.481 17.5625 194.227 19.5994 192.08 19.5994C189.934 19.5994 189.68 17.5625 189.68 15.1982C189.68 12.9249 189.934 10.8516 192.08 10.8516C194.227 10.8516 194.481 12.9249 194.481 15.1982ZM198.782 21.8181H207.766V19.7085H202.401C204.511 17.9262 207.475 15.5255 207.475 12.452C207.475 10.1423 206.038 8.45093 203.183 8.45093C200.801 8.45093 198.855 9.85131 198.764 12.8885H201.237C201.255 11.4881 201.928 10.6151 203.147 10.6151C204.402 10.6151 204.929 11.4154 204.929 12.5975C204.929 15.0345 201.783 17.3806 198.782 19.9267V21.8181ZM209.225 21.8181H218.209V19.7085H212.844C214.954 17.9262 217.918 15.5255 217.918 12.452C217.918 10.1423 216.482 8.45093 213.626 8.45093C211.244 8.45093 209.298 9.85131 209.207 12.8885H211.68C211.699 11.4881 212.371 10.6151 213.59 10.6151C214.845 10.6151 215.372 11.4154 215.372 12.5975C215.372 15.0345 212.226 17.3806 209.225 19.9267V21.8181Z" fill="white"/>
<path d="M1.17744 27.2948V9.63319H10.924C11.491 9.63319 12.007 9.77856 12.4722 10.0693C12.9373 10.3455 13.308 10.7161 13.5842 11.1813C13.8604 11.6465 13.9985 12.1552 13.9985 12.7076V19.2054C13.9985 19.7577 13.8604 20.2665 13.5842 20.7317C13.308 21.1968 12.9373 21.5748 12.4722 21.8655C12.007 22.1417 11.491 22.2798 10.924 22.2798H4.27368V27.2948H1.17744ZM4.4045 19.1836H10.7714C10.815 19.1836 10.8441 19.169 10.8586 19.1399C10.8877 19.1109 10.9022 19.0818 10.9022 19.0527V12.8603C10.9022 12.8312 10.8877 12.8021 10.8586 12.773C10.8441 12.744 10.815 12.7294 10.7714 12.7294H4.4045C4.37543 12.7294 4.34636 12.744 4.31729 12.773C4.28821 12.8021 4.27368 12.8312 4.27368 12.8603V19.0527C4.27368 19.0818 4.28821 19.1109 4.31729 19.1399C4.34636 19.169 4.37543 19.1836 4.4045 19.1836ZM15.656 22.2798V9.63319H18.7522V22.2798H15.656ZM15.656 8.60838V5.49034H18.7522V8.60838H15.656ZM24.0548 22.2798C23.4878 22.2798 22.9718 22.1417 22.5066 21.8655C22.0415 21.5748 21.6635 21.1968 21.3728 20.7317C21.0966 20.2665 20.9585 19.7577 20.9585 19.2054V5.81741H24.0548V9.63319H28.8735V12.7294H24.0548V19.0527C24.0548 19.0818 24.0693 19.1109 24.0984 19.1399C24.1274 19.169 24.1565 19.1836 24.1856 19.1836H28.8735V22.2798H24.0548ZM33.6991 22.2798C33.1468 22.2798 32.638 22.1417 32.1728 21.8655C31.7077 21.5748 31.3297 21.1968 31.039 20.7317C30.7628 20.2665 30.6247 19.7577 30.6247 19.2054V12.7076C30.6247 12.1552 30.7628 11.6465 31.039 11.1813C31.3297 10.7161 31.7077 10.3455 32.1728 10.0693C32.638 9.77856 33.1468 9.63319 33.6991 9.63319H43.4239V12.7294H33.8518C33.8227 12.7294 33.7936 12.744 33.7646 12.773C33.7355 12.8021 33.721 12.8312 33.721 12.8603V19.0527C33.721 19.0818 33.7355 19.1109 33.7646 19.1399C33.7936 19.169 33.8227 19.1836 33.8518 19.1836H43.4457V22.2798H33.6991ZM45.2761 22.2798V5.49034H48.3724V9.63319H55.0227C55.5751 9.63319 56.0839 9.77856 56.549 10.0693C57.0142 10.3455 57.3849 10.7161 57.6611 11.1813C57.9518 11.6465 58.0972 12.1552 58.0972 12.7076V22.2798H55.0009V12.8603C55.0009 12.8312 54.9864 12.8021 54.9573 12.773C54.9428 12.744 54.9137 12.7294 54.8701 12.7294H48.5032C48.4741 12.7294 48.445 12.744 48.416 12.773C48.3869 12.8021 48.3724 12.8312 48.3724 12.8603V22.2798H45.2761ZM59.8408 22.2798V5.49034H62.9371V9.63319H69.5874C70.1543 9.63319 70.6704 9.77856 71.1355 10.0693C71.6007 10.3455 71.9714 10.7161 72.2476 11.1813C72.5238 11.6465 72.6619 12.1552 72.6619 12.7076V19.2054C72.6619 19.7577 72.5238 20.2665 72.2476 20.7317C71.9714 21.1968 71.6007 21.5748 71.1355 21.8655C70.6704 22.1417 70.1543 22.2798 69.5874 22.2798H59.8408ZM63.0679 19.1836H69.4348C69.4784 19.1836 69.5075 19.169 69.522 19.1399C69.5511 19.1109 69.5656 19.0818 69.5656 19.0527V12.8603C69.5656 12.8312 69.5511 12.8021 69.522 12.773C69.5075 12.744 69.4784 12.7294 69.4348 12.7294H63.0679C63.0388 12.7294 63.0097 12.744 62.9807 12.773C62.9516 12.8021 62.9371 12.8312 62.9371 12.8603V19.0527C62.9371 19.0818 62.9516 19.1109 62.9807 19.1399C63.0097 19.169 63.0388 19.1836 63.0679 19.1836ZM77.4151 22.2798C76.8627 22.2798 76.3539 22.1417 75.8888 21.8655C75.4236 21.5748 75.0456 21.1968 74.7549 20.7317C74.4787 20.2665 74.3406 19.7577 74.3406 19.2054V5.46854H77.4587V19.0527C77.4587 19.0818 77.4732 19.1109 77.5023 19.1399C77.5314 19.169 77.5604 19.1836 77.5895 19.1836H80.0752V22.2798H77.4151ZM84.8252 22.2798C84.2728 22.2798 83.7568 22.1417 83.2771 21.8655C82.8119 21.5748 82.4412 21.1968 82.165 20.7317C81.8888 20.2665 81.7508 19.7577 81.7508 19.2054V14.3866H91.4755V12.8603C91.4755 12.8312 91.461 12.8021 91.4319 12.773C91.4029 12.744 91.3738 12.7294 91.3447 12.7294H81.7508V9.63319H91.4974C92.0643 9.63319 92.5803 9.77856 93.0455 10.0693C93.5106 10.3455 93.8813 10.7161 94.1575 11.1813C94.4337 11.6465 94.5718 12.1552 94.5718 12.7076V22.2798H84.8252ZM84.9778 19.1836H91.4755V17.1557H84.847V19.0527C84.847 19.0818 84.8615 19.1109 84.8906 19.1399C84.9197 19.169 84.9487 19.1836 84.9778 19.1836ZM99.2616 22.2798C98.7092 22.2798 98.2005 22.1417 97.7353 21.8655C97.2701 21.5748 96.8922 21.1968 96.6015 20.7317C96.3253 20.2665 96.1872 19.7577 96.1872 19.2054V12.7076C96.1872 12.1552 96.3253 11.6465 96.6015 11.1813C96.8922 10.7161 97.2701 10.3455 97.7353 10.0693C98.2005 9.77856 98.7092 9.63319 99.2616 9.63319H108.986V12.7294H99.4142C99.3852 12.7294 99.3561 12.744 99.327 12.773C99.298 12.8021 99.2834 12.8312 99.2834 12.8603V19.0527C99.2834 19.0818 99.298 19.1109 99.327 19.1399C99.3561 19.169 99.3852 19.1836 99.4142 19.1836H109.008V22.2798H99.2616ZM110.817 22.2798V5.49034H113.914V14.3866H115.898L120.28 9.63319H123.486V10.5926L118.623 15.9565L123.486 21.3204V22.2798H120.28L115.898 17.5264H113.914V22.2798H110.817Z" fill="white"/>
<path d="M138.45 13.1057C138.974 12.5162 139.465 11.8939 140.022 11.2716C140.546 10.6493 141.07 10.027 141.529 9.4375H144.968V10.5183L140.611 15.6604C141.005 16.1517 141.398 16.643 141.823 17.1343C142.216 17.6255 142.642 18.1168 143.035 18.5753L145 20.999V22.0798H141.561L138.45 18.2806L135.338 22.0798H131.899V20.999L136.255 15.6604L138.45 13.1057Z" fill="white"/>
<path d="M137.404 11.8939V14.4486H135.275H135.243L131.935 10.5183V9.4375H135.341L137.404 11.8939Z" fill="#1D9BF0"/>
</svg>
