<svg width="206" height="30" viewBox="0 0 206 30" fill="none" xmlns="http://www.w3.org/2000/svg">
<path d="M53.1861 23.3741C51.4169 23.3741 50.0016 22.4895 49.1613 21.5165V28.195H43.5V9.79589H49.1613V11.3881C50.0458 10.3709 51.4612 9.53052 53.1861 9.53052C56.9013 9.53052 59.5992 12.4938 59.5992 16.4744C59.5992 20.4108 56.9013 23.3741 53.1861 23.3741ZM51.5496 13.8649C50.0458 13.8649 49.117 15.0591 49.117 16.4302C49.117 17.7571 50.0016 18.9954 51.5496 18.9954C53.0534 18.9954 53.938 17.8013 53.938 16.4302C53.938 15.0591 53.0976 13.8649 51.5496 13.8649Z" fill="white"/>
<path d="M63.226 8.33634C61.501 8.33634 60.1299 6.96525 60.1299 5.24034C60.1299 3.51542 61.501 2.1001 63.226 2.1001C64.9509 2.1001 66.3662 3.47119 66.3662 5.24034C66.3662 6.96525 64.9951 8.33634 63.226 8.33634ZM60.4395 23.0645V9.79588H66.1008V23.0645H60.4395Z" fill="white"/>
<path d="M78.0426 9.79577V13.5994H74.6812V23.0644H69.1526V13.5994H66.897V9.79577H69.1526V4.70947H74.6812V9.79577H78.0426Z" fill="white"/>
<path d="M84.6327 23.3739C80.0329 23.3739 77.2907 20.2779 77.2907 16.43C77.2907 12.5821 80.0329 9.48608 84.6327 9.48608C87.9056 9.48608 90.2939 11.1668 91.267 13.4667L86.9768 15.457C86.6672 14.5724 85.9595 14.0416 84.898 14.0416C83.35 14.0416 82.7751 15.3243 82.7751 16.4742C82.7751 17.6242 83.35 18.8626 84.898 18.8626C85.9595 18.8626 86.6672 18.3318 86.9768 17.4472L91.267 19.4375C90.2939 21.6932 87.9056 23.3739 84.6327 23.3739Z" fill="white"/>
<path d="M92.063 4.66528H97.7243V10.9015C98.6531 10.017 99.7588 9.44199 101.13 9.44199C105.066 9.44199 106.791 11.8746 106.791 15.9436V23.0202H101.13L101.174 18.3319C101.174 15.8551 101.44 14.086 99.4492 14.086C97.857 14.086 97.7686 15.5898 97.7243 17.3589V23.0644H92.063V4.66528Z" fill="white"/>
<path d="M126.384 18.0666C126.384 20.8088 124.262 23.0644 119.75 23.0644H109.445V4.66528H118.335C122.89 4.66528 124.969 6.56712 124.969 9.13238C124.969 10.6362 124.306 12.7149 121.564 13.2899C125.013 13.4668 126.384 15.8109 126.384 18.0666ZM117.45 9.04392H116.566C116.168 9.04392 115.902 9.04392 115.062 9.04392V11.6092H116.566C116.875 11.6092 117.76 11.565 118.025 11.565C118.954 11.4765 119.308 11.0342 119.308 10.2381C119.308 9.35352 118.689 9.04392 117.45 9.04392ZM118.6 15.7224H117.45C116.92 15.7224 115.018 15.7224 115.018 15.7224V18.6858H117.362C117.539 18.6858 118.335 18.6858 118.556 18.6858C120.104 18.6858 120.635 18.0666 120.635 17.2262C120.679 16.3416 120.104 15.7224 118.6 15.7224Z" fill="white"/>
<path d="M134.125 4.66528V18.2435H142.174V23.0644H128.463V4.66528H134.125Z" fill="white"/>
<path d="M163.448 23.0644H157.389L152.833 13.0245L148.233 23.0644H142.174L150.755 4.66528H154.868L163.448 23.0644Z" fill="white"/>
<path d="M173.09 23.374C167.473 23.374 162.917 19.5261 162.917 13.909C162.917 8.29198 167.473 4.44409 173.09 4.44409C176.363 4.44409 179.459 5.81518 181.272 7.98238L177.69 11.6534C176.761 10.1054 175.213 9.39771 173.223 9.39771C170.525 9.39771 168.534 11.2553 168.534 13.909C168.534 16.5627 170.525 18.4204 173.223 18.4204C175.213 18.4204 176.761 17.7127 177.69 16.1647L181.272 19.8357C179.503 22.0029 176.363 23.374 173.09 23.374Z" fill="white"/>
<path d="M189.056 4.66528V23.0644H183.395V4.66528H189.056ZM197.814 23.0644L190.383 13.6879L197.548 4.66528H204.89L197.018 13.6879L205.2 23.0644H197.814Z" fill="white"/>
<path d="M8.10753 16.2151C12.5852 16.2151 16.2151 12.5852 16.2151 8.10753C16.2151 3.62987 12.5852 0 8.10753 0C3.62986 0 0 3.62987 0 8.10753C0 12.5852 3.62986 16.2151 8.10753 16.2151Z" fill="#BC8D7E"/>
<path d="M25.6989 12.8171C28.8345 12.8171 31.3764 10.2753 31.3764 7.13971C31.3764 4.00415 28.8345 1.46228 25.6989 1.46228C22.5634 1.46228 20.0215 4.00415 20.0215 7.13971C20.0215 10.2753 22.5634 12.8171 25.6989 12.8171Z" fill="#9B7569"/>
<path d="M23.5054 29.9785C27.0804 29.9785 29.9785 27.0804 29.9785 23.5053C29.9785 19.9303 27.0804 17.0322 23.5054 17.0322C19.9304 17.0322 17.0323 19.9303 17.0323 23.5053C17.0323 27.0804 19.9304 29.9785 23.5054 29.9785Z" fill="#DABCAE"/>
<path d="M7.6989 30C10.3831 30 12.5591 27.824 12.5591 25.1398C12.5591 22.4555 10.3831 20.2795 7.6989 20.2795C5.01468 20.2795 2.83868 22.4555 2.83868 25.1398C2.83868 27.824 5.01468 30 7.6989 30Z" fill="#795D53"/>
</svg>
