<svg width="21" height="20" viewBox="0 0 21 20" fill="none" xmlns="http://www.w3.org/2000/svg">
<path fill-rule="evenodd" clip-rule="evenodd" d="M6.11946 0.06C7.18582 0.0109091 7.52582 0 10.2422 0C12.9586 0 13.2986 0.0118182 14.364 0.06C15.4295 0.108182 16.1567 0.278182 16.7931 0.524545C17.4595 0.776364 18.064 1.17 18.564 1.67909C19.0731 2.17818 19.4658 2.78182 19.7167 3.44909C19.964 4.08545 20.1331 4.81273 20.1822 5.87636C20.2313 6.94455 20.2422 7.28455 20.2422 10C20.2422 12.7164 20.2304 13.0564 20.1822 14.1227C20.134 15.1864 19.964 15.9136 19.7167 16.55C19.4658 17.2174 19.0724 17.822 18.564 18.3218C18.064 18.8309 17.4595 19.2236 16.7931 19.4745C16.1567 19.7218 15.4295 19.8909 14.3658 19.94C13.2986 19.9891 12.9586 20 10.2422 20C7.52582 20 7.18582 19.9882 6.11946 19.94C5.05582 19.8918 4.32855 19.7218 3.69219 19.4745C3.02484 19.2236 2.42021 18.8302 1.92037 18.3218C1.41162 17.8224 1.01793 17.2181 0.766733 16.5509C0.520369 15.9145 0.351278 15.1873 0.302187 14.1236C0.253097 13.0555 0.242188 12.7155 0.242188 10C0.242188 7.28364 0.254006 6.94364 0.302187 5.87818C0.350369 4.81273 0.520369 4.08545 0.766733 3.44909C1.0183 2.78189 1.4123 2.17756 1.92128 1.67818C2.42041 1.16955 3.02444 0.775858 3.69128 0.524545C4.32764 0.278182 5.05491 0.109091 6.11855 0.06H6.11946ZM14.2831 1.86C13.2286 1.81182 12.9122 1.80182 10.2422 1.80182C7.57219 1.80182 7.25582 1.81182 6.20128 1.86C5.22582 1.90455 4.69673 2.06727 4.34401 2.20455C3.87764 2.38636 3.54401 2.60182 3.19401 2.95182C2.86223 3.27459 2.6069 3.66753 2.44673 4.10182C2.30946 4.45455 2.14673 4.98364 2.10219 5.95909C2.05401 7.01364 2.04401 7.33 2.04401 10C2.04401 12.67 2.05401 12.9864 2.10219 14.0409C2.14673 15.0164 2.30946 15.5455 2.44673 15.8982C2.60673 16.3318 2.86219 16.7255 3.19401 17.0482C3.51673 17.38 3.91037 17.6355 4.34401 17.7955C4.69673 17.9327 5.22582 18.0955 6.20128 18.14C7.25582 18.1882 7.57128 18.1982 10.2422 18.1982C12.9131 18.1982 13.2286 18.1882 14.2831 18.14C15.2586 18.0955 15.7876 17.9327 16.1404 17.7955C16.6067 17.6136 16.9404 17.3982 17.2904 17.0482C17.6222 16.7255 17.8776 16.3318 18.0376 15.8982C18.1749 15.5455 18.3376 15.0164 18.3822 14.0409C18.4304 12.9864 18.4404 12.67 18.4404 10C18.4404 7.33 18.4304 7.01364 18.3822 5.95909C18.3376 4.98364 18.1749 4.45455 18.0376 4.10182C17.8558 3.63545 17.6404 3.30182 17.2904 2.95182C16.9676 2.62006 16.5746 2.36474 16.1404 2.20455C15.7876 2.06727 15.2586 1.90455 14.2831 1.86ZM8.96492 13.0827C9.67824 13.3797 10.4725 13.4197 11.2121 13.1961C11.9517 12.9725 12.5907 12.499 13.02 11.8566C13.4493 11.2142 13.6422 10.4426 13.5659 9.67373C13.4895 8.90485 13.1486 8.18634 12.6013 7.64091C12.2524 7.29225 11.8306 7.02528 11.3661 6.85922C10.9017 6.69317 10.4062 6.63215 9.91537 6.68056C9.42452 6.72897 8.95051 6.88562 8.52746 7.13921C8.10442 7.3928 7.74286 7.73704 7.46883 8.14714C7.19479 8.55723 7.01509 9.02299 6.94266 9.51087C6.87023 9.99876 6.90687 10.4966 7.04995 10.9687C7.19303 11.4407 7.43899 11.8751 7.77012 12.2407C8.10124 12.6062 8.5093 12.8938 8.96492 13.0827ZM6.60764 6.36545C7.08494 5.88816 7.65157 5.50955 8.27519 5.25124C8.8988 4.99293 9.56719 4.85998 10.2422 4.85998C10.9172 4.85998 11.5856 4.99293 12.2092 5.25124C12.8328 5.50955 13.3994 5.88816 13.8767 6.36545C14.354 6.84275 14.7326 7.40938 14.991 8.033C15.2493 8.65662 15.3822 9.325 15.3822 10C15.3822 10.675 15.2493 11.3434 14.991 11.967C14.7326 12.5906 14.354 13.1573 13.8767 13.6345C12.9128 14.5985 11.6054 15.14 10.2422 15.14C8.87897 15.14 7.57158 14.5985 6.60764 13.6345C5.6437 12.6706 5.10216 11.3632 5.10216 10C5.10216 8.63678 5.6437 7.3294 6.60764 6.36545ZM16.5222 5.62545C16.6405 5.51388 16.7352 5.37971 16.8006 5.23089C16.8661 5.08206 16.9011 4.92161 16.9035 4.75903C16.9058 4.59645 16.8756 4.43504 16.8144 4.28437C16.7533 4.1337 16.6626 3.99683 16.5476 3.88185C16.4326 3.76688 16.2958 3.67614 16.1451 3.61502C15.9944 3.55389 15.833 3.52361 15.6704 3.52598C15.5079 3.52835 15.3474 3.56332 15.1986 3.62881C15.0498 3.69431 14.9156 3.789 14.804 3.90727C14.587 4.1373 14.4682 4.44284 14.4728 4.75903C14.4774 5.07522 14.6051 5.37716 14.8287 5.60077C15.0523 5.82437 15.3542 5.95203 15.6704 5.95664C15.9866 5.96125 16.2922 5.84245 16.5222 5.62545Z" fill="#E9D3C5"/>
</svg>
