<svg width="21" height="20" viewBox="0 0 21 20" fill="none" xmlns="http://www.w3.org/2000/svg">
<path fill-rule="evenodd" clip-rule="evenodd" d="M0.242188 1.67091C0.242188 1.22776 0.418229 0.802756 0.731586 0.4894C1.04494 0.176044 1.46994 2.22756e-06 1.9131 2.22756e-06H18.5695C18.7891 -0.000356456 19.0066 0.0426049 19.2096 0.126426C19.4126 0.210248 19.597 0.333284 19.7524 0.48849C19.9078 0.643696 20.031 0.828024 20.1151 1.03092C20.1991 1.23382 20.2423 1.4513 20.2422 1.67091V18.3273C20.2424 18.5469 20.1994 18.7645 20.1154 18.9675C20.0315 19.1705 19.9084 19.3549 19.7531 19.5103C19.5978 19.6656 19.4134 19.7889 19.2105 19.8729C19.0075 19.9569 18.79 20.0001 18.5704 20H1.9131C1.69359 20 1.47624 19.9568 1.27346 19.8727C1.07067 19.7887 0.886434 19.6655 0.731264 19.5103C0.576094 19.355 0.453035 19.1707 0.369117 18.9679C0.2852 18.7651 0.242068 18.5477 0.242188 18.3282V1.67091ZM8.15855 7.62546H10.8667V8.98546C11.2576 8.20364 12.2576 7.5 13.7604 7.5C16.6413 7.5 17.324 9.05727 17.324 11.9145V17.2073H14.4086V12.5655C14.4086 10.9382 14.0176 10.02 13.0249 10.02C11.6476 10.02 11.0749 11.01 11.0749 12.5655V17.2073H8.15855V7.62546ZM3.15855 17.0827H6.07491V7.5H3.15855V17.0818V17.0827ZM6.49219 4.37455C6.49769 4.62425 6.45325 4.87254 6.3615 5.10483C6.26974 5.33713 6.13251 5.54876 5.95785 5.7273C5.7832 5.90585 5.57464 6.0477 5.34442 6.14455C5.1142 6.2414 4.86695 6.29129 4.61719 6.29129C4.36742 6.29129 4.12018 6.2414 3.88996 6.14455C3.65973 6.0477 3.45118 5.90585 3.27652 5.7273C3.10187 5.54876 2.96464 5.33713 2.87288 5.10483C2.78112 4.87254 2.73669 4.62425 2.74219 4.37455C2.75298 3.88441 2.95526 3.41799 3.30572 3.07517C3.65617 2.73235 4.12694 2.54038 4.61719 2.54038C5.10744 2.54038 5.5782 2.73235 5.92866 3.07517C6.27911 3.41799 6.48139 3.88441 6.49219 4.37455Z" fill="#E9D3C5"/>
</svg>
