<svg width="160" height="31" viewBox="0 0 160 31" fill="none" xmlns="http://www.w3.org/2000/svg">
<path d="M1.296 30.0698V10.6298H12.024C12.648 10.6298 13.216 10.7898 13.728 11.1098C14.24 11.4138 14.648 11.8218 14.952 12.3338C15.256 12.8458 15.408 13.4058 15.408 14.0138V21.1658C15.408 21.7738 15.256 22.3338 14.952 22.8458C14.648 23.3578 14.24 23.7738 13.728 24.0938C13.216 24.3978 12.648 24.5498 12.024 24.5498H4.704V30.0698H1.296ZM4.848 21.1418H11.856C11.904 21.1418 11.936 21.1258 11.952 21.0938C11.984 21.0618 12 21.0298 12 20.9978V14.1818C12 14.1498 11.984 14.1178 11.952 14.0858C11.936 14.0538 11.904 14.0378 11.856 14.0378H4.848C4.816 14.0378 4.784 14.0538 4.752 14.0858C4.72 14.1178 4.704 14.1498 4.704 14.1818V20.9978C4.704 21.0298 4.72 21.0618 4.752 21.0938C4.784 21.1258 4.816 21.1418 4.848 21.1418ZM17.2324 24.5498V10.6298H20.6404V24.5498H17.2324ZM17.2324 9.5018V6.0698H20.6404V9.5018H17.2324ZM26.4769 24.5498C25.8529 24.5498 25.2849 24.3978 24.7729 24.0938C24.2609 23.7738 23.8449 23.3578 23.5249 22.8458C23.2209 22.3338 23.0689 21.7738 23.0689 21.1658V6.4298H26.4769V10.6298H31.7809V14.0378H26.4769V20.9978C26.4769 21.0298 26.4929 21.0618 26.5249 21.0938C26.5569 21.1258 26.5889 21.1418 26.6209 21.1418H31.7809V24.5498H26.4769ZM37.0924 24.5498C36.4844 24.5498 35.9244 24.3978 35.4124 24.0938C34.9004 23.7738 34.4844 23.3578 34.1644 22.8458C33.8604 22.3338 33.7084 21.7738 33.7084 21.1658V14.0138C33.7084 13.4058 33.8604 12.8458 34.1644 12.3338C34.4844 11.8218 34.9004 11.4138 35.4124 11.1098C35.9244 10.7898 36.4844 10.6298 37.0924 10.6298H47.7964V14.0378H37.2604C37.2284 14.0378 37.1964 14.0538 37.1644 14.0858C37.1324 14.1178 37.1164 14.1498 37.1164 14.1818V20.9978C37.1164 21.0298 37.1324 21.0618 37.1644 21.0938C37.1964 21.1258 37.2284 21.1418 37.2604 21.1418H47.8204V24.5498H37.0924ZM49.8351 24.5498V6.0698H53.2431V10.6298H60.5631C61.1711 10.6298 61.7311 10.7898 62.2431 11.1098C62.7551 11.4138 63.1631 11.8218 63.4671 12.3338C63.7871 12.8458 63.9471 13.4058 63.9471 14.0138V24.5498H60.5391V14.1818C60.5391 14.1498 60.5231 14.1178 60.4911 14.0858C60.4751 14.0538 60.4431 14.0378 60.3951 14.0378H53.3871C53.3551 14.0378 53.3231 14.0538 53.2911 14.0858C53.2591 14.1178 53.2431 14.1498 53.2431 14.1818V24.5498H49.8351ZM65.8663 24.5498V6.0698H69.2743V10.6298H76.5943C77.2183 10.6298 77.7863 10.7898 78.2983 11.1098C78.8103 11.4138 79.2183 11.8218 79.5223 12.3338C79.8263 12.8458 79.9783 13.4058 79.9783 14.0138V21.1658C79.9783 21.7738 79.8263 22.3338 79.5223 22.8458C79.2183 23.3578 78.8103 23.7738 78.2983 24.0938C77.7863 24.3978 77.2183 24.5498 76.5943 24.5498H65.8663ZM69.4183 21.1418H76.4263C76.4743 21.1418 76.5063 21.1258 76.5223 21.0938C76.5543 21.0618 76.5703 21.0298 76.5703 20.9978V14.1818C76.5703 14.1498 76.5543 14.1178 76.5223 14.0858C76.5063 14.0538 76.4743 14.0378 76.4263 14.0378H69.4183C69.3863 14.0378 69.3543 14.0538 69.3223 14.0858C69.2903 14.1178 69.2743 14.1498 69.2743 14.1818V20.9978C69.2743 21.0298 69.2903 21.0618 69.3223 21.0938C69.3543 21.1258 69.3863 21.1418 69.4183 21.1418ZM85.2101 24.5498C84.6021 24.5498 84.0421 24.3978 83.5301 24.0938C83.0181 23.7738 82.6021 23.3578 82.2821 22.8458C81.9781 22.3338 81.8261 21.7738 81.8261 21.1658V6.0458H85.2581V20.9978C85.2581 21.0298 85.2741 21.0618 85.3061 21.0938C85.3381 21.1258 85.3701 21.1418 85.4021 21.1418H88.1381V24.5498H85.2101ZM93.3664 24.5498C92.7584 24.5498 92.1904 24.3978 91.6624 24.0938C91.1504 23.7738 90.7424 23.3578 90.4384 22.8458C90.1344 22.3338 89.9824 21.7738 89.9824 21.1658V15.8618H100.686V14.1818C100.686 14.1498 100.67 14.1178 100.638 14.0858C100.606 14.0538 100.574 14.0378 100.542 14.0378H89.9824V10.6298H100.71C101.334 10.6298 101.902 10.7898 102.414 11.1098C102.926 11.4138 103.334 11.8218 103.638 12.3338C103.942 12.8458 104.094 13.4058 104.094 14.0138V24.5498H93.3664ZM93.5344 21.1418H100.686V18.9098H93.3904V20.9978C93.3904 21.0298 93.4064 21.0618 93.4384 21.0938C93.4704 21.1258 93.5024 21.1418 93.5344 21.1418ZM109.256 24.5498C108.648 24.5498 108.088 24.3978 107.576 24.0938C107.064 23.7738 106.648 23.3578 106.328 22.8458C106.024 22.3338 105.872 21.7738 105.872 21.1658V14.0138C105.872 13.4058 106.024 12.8458 106.328 12.3338C106.648 11.8218 107.064 11.4138 107.576 11.1098C108.088 10.7898 108.648 10.6298 109.256 10.6298H119.96V14.0378H109.424C109.392 14.0378 109.36 14.0538 109.328 14.0858C109.296 14.1178 109.28 14.1498 109.28 14.1818V20.9978C109.28 21.0298 109.296 21.0618 109.328 21.0938C109.36 21.1258 109.392 21.1418 109.424 21.1418H119.984V24.5498H109.256ZM121.976 24.5498V6.0698H125.384V15.8618H127.568L132.392 10.6298H135.92V11.6858L130.568 17.5898L135.92 23.4938V24.5498H132.392L127.568 19.3178H125.384V24.5498H121.976Z" fill="white"/>
<path d="M152.391 14.6677C152.967 14.0188 153.508 13.3339 154.121 12.6489C154.698 11.964 155.275 11.279 155.779 10.6301H159.565V11.8198L154.77 17.4796C155.203 18.0204 155.635 18.5611 156.104 19.1019C156.536 19.6426 157.005 20.1834 157.438 20.6881L159.601 23.3558V24.5454H155.815L152.391 20.3636L148.966 24.5454H145.181V23.3558L149.975 17.4796L152.391 14.6677Z" fill="white"/>
<path d="M151.239 13.3339V16.1458H148.896H148.86L145.219 11.8198V10.6301H148.968L151.239 13.3339Z" fill="#1D9BF0"/>
</svg>
