<svg width="24" height="20" viewBox="0 0 24 20" fill="none" xmlns="http://www.w3.org/2000/svg">
<path d="M20.5044 3.15344C21.5005 2.52264 22.2458 1.52937 22.6011 0.359079C21.6652 0.947403 20.6412 1.36182 19.5733 1.58441C18.8532 0.777351 17.9024 0.243631 16.8676 0.0655202C15.8328 -0.11259 14.7714 0.0747967 13.8471 0.598796C12.9228 1.1228 12.1868 1.95432 11.7526 2.96518C11.3184 3.97605 11.2101 5.11014 11.4444 6.19264C9.54876 6.09181 7.69427 5.56982 6.00135 4.66054C4.30843 3.75126 2.81493 2.47502 1.61778 0.914656C1.00896 2.02711 0.822661 3.34334 1.09672 4.59603C1.37078 5.84872 2.08464 6.94394 3.09333 7.65927C2.33634 7.63349 1.59614 7.41636 0.934445 7.026V7.08956C0.934657 8.25601 1.3157 9.38647 2.01296 10.2892C2.71022 11.192 3.68076 11.8115 4.76 12.0427C4.05785 12.245 3.32134 12.2748 2.60667 12.1298C2.91192 13.133 3.50523 14.0103 4.30379 14.6391C5.10234 15.2679 6.06629 15.6169 7.06111 15.6374C5.37204 17.0418 3.28608 17.8034 1.13889 17.7997C0.757778 17.7997 0.377778 17.7762 0 17.7303C2.18046 19.2145 4.7182 20.0024 7.31 19.9997C9.09512 20.0127 10.8649 19.6497 12.5165 18.932C14.1681 18.2143 15.6686 17.156 16.9308 15.8187C18.1931 14.4814 19.1919 12.8918 19.8693 11.1421C20.5466 9.3924 20.8891 7.51755 20.8767 5.62647C20.8767 5.40753 20.8722 5.18977 20.8622 4.97319C21.7961 4.25826 22.602 3.37257 23.2422 2.35774C22.3722 2.76624 21.4494 3.03445 20.5044 3.15344Z" fill="#E9D3C5"/>
</svg>
